<svg width="25" height="25" viewBox="0 0 25 25" fill="none" xmlns="http://www.w3.org/2000/svg">
<path d="M2.06274 8.84788C2.06274 7.6517 2.54512 6.91863 3.54337 6.36309L7.65261 4.07625C9.80584 2.87796 10.8824 2.27881 12.0627 2.27881C13.243 2.27881 14.3196 2.87796 16.4728 4.07625L20.5821 6.36309C21.5803 6.91863 22.0627 7.65171 22.0627 8.84788C22.0627 9.17224 22.0627 9.33442 22.0273 9.46775C21.8412 10.1683 21.2064 10.2788 20.5934 10.2788H3.53202C2.91901 10.2788 2.28426 10.1682 2.09816 9.46775C2.06274 9.33442 2.06274 9.17224 2.06274 8.84788Z" stroke="white" stroke-width="1.5"/>
<path d="M12.0586 7.27881H12.0676" stroke="white" stroke-width="2" stroke-linecap="round" stroke-linejoin="round"/>
<path d="M4.06274 10.2788V18.7788M8.06274 10.2788V18.7788" stroke="white" stroke-width="1.5"/>
<path d="M16.0627 10.2788V18.7788M20.0627 10.2788V18.7788" stroke="white" stroke-width="1.5"/>
<path d="M19.0627 18.7788H5.06274C3.40589 18.7788 2.06274 20.1219 2.06274 21.7788C2.06274 22.0549 2.2866 22.2788 2.56274 22.2788H21.5627C21.8388 22.2788 22.0627 22.0549 22.0627 21.7788C22.0627 20.1219 20.7196 18.7788 19.0627 18.7788Z" stroke="white" stroke-width="1.5"/>
</svg>
