<svg width="25" height="25" viewBox="0 0 25 25" fill="none" xmlns="http://www.w3.org/2000/svg">
<path d="M22.0627 11.8455C22.0627 17.1287 17.5849 21.4122 12.0627 21.4122C11.4134 21.4131 10.7659 21.353 10.1281 21.2333C9.66907 21.147 9.43952 21.1039 9.27927 21.1284C9.11901 21.1529 8.89192 21.2736 8.43773 21.5152C7.15288 22.1985 5.65469 22.4398 4.21385 22.1718C4.76148 21.4982 5.13549 20.69 5.30052 19.8236C5.40052 19.2936 5.15274 18.7788 4.78163 18.4019C3.09607 16.6903 2.06274 14.3839 2.06274 11.8455C2.06274 6.56238 6.54052 2.27881 12.0627 2.27881C17.5849 2.27881 22.0627 6.56238 22.0627 11.8455Z" stroke="white" stroke-width="1.5" stroke-linejoin="round"/>
<path d="M12.0582 12.2788H12.0672M16.0537 12.2788H16.0627M8.06274 12.2788H8.07171" stroke="white" stroke-width="2" stroke-linecap="round" stroke-linejoin="round"/>
</svg>
