<svg width="25" height="25" viewBox="0 0 25 25" fill="none" xmlns="http://www.w3.org/2000/svg">
<path d="M2.06274 21.7787H22.0627" stroke="white" stroke-width="1.5" stroke-linecap="round" stroke-linejoin="round"/>
<path d="M18.0627 15.7787H18.0717M18.0627 18.7787H18.0717" stroke="white" stroke-width="2" stroke-linecap="round" stroke-linejoin="round"/>
<path d="M6.06274 18.7787H6.07172M6.06274 15.7787H6.07172M6.06274 12.7787H6.07172M6.06274 9.77869H6.07172" stroke="white" stroke-width="2" stroke-linecap="round" stroke-linejoin="round"/>
<path d="M7.85337 5.67055L16.281 9.86909M8.06274 4.77869C8.06274 5.88326 7.16731 6.77869 6.06274 6.77869C4.95817 6.77869 4.06274 5.88326 4.06274 4.77869C4.06274 3.67412 4.95817 2.77869 6.06274 2.77869C7.16731 2.77869 8.06274 3.67412 8.06274 4.77869ZM20.0627 10.7787C20.0627 11.8833 19.1673 12.7787 18.0627 12.7787C16.9581 12.7787 16.0627 11.8833 16.0627 10.7787C16.0627 9.67412 16.9581 8.77869 18.0627 8.77869C19.1673 8.77869 20.0627 9.67412 20.0627 10.7787Z" stroke="white" stroke-width="1.5" stroke-linecap="round" stroke-linejoin="round"/>
</svg>
