<svg width="205" height="27" viewBox="0 0 205 27" fill="none" xmlns="http://www.w3.org/2000/svg">
<g style="mix-blend-mode:multiply">
<path d="M204.79 22.5632C204.79 24.5873 159.155 26.2242 102.857 26.2242C46.5597 26.2242 0.924438 24.5873 0.924438 22.5632C0.924438 20.5392 46.5597 18.8912 102.857 18.8912C159.155 18.8912 204.79 20.5281 204.79 22.5632Z" fill="#B5E3BC"/>
</g>
<path d="M90.7682 20.9817C90.7682 20.9817 104.97 22.8287 107.082 12.9407C109.195 3.04167 94.5066 18.3272 91.5535 15.6948L90.7682 20.9927V20.9817Z" fill="#191717"/>
<path d="M86.0233 20.5393C86.0233 20.5393 88.5561 22.5966 90.1045 21.6896C91.653 20.7716 92.6816 16.7014 91.9185 15.4626C91.1553 14.2238 89.4409 13.9584 88.6446 14.3344C87.8482 14.7105 84.7734 18.6259 86.0233 20.5393Z" fill="#191717"/>
<path d="M88.7331 15.1971C88.7331 15.1971 88.7331 15.1529 88.722 15.0644C88.6446 14.2791 88.1137 10.2421 85.3486 10.1978C82.2849 10.1536 78.1483 17.0664 82.5171 19.389C86.886 21.7228 86.2113 18.9798 86.2113 18.9798" fill="#191717"/>
<path d="M81.389 13.0625C82.5835 12.3214 84.1541 12.6864 84.8951 13.892C85.6362 15.0865 85.2712 16.6571 84.0766 17.3981C82.8821 18.1392 81.3115 17.7742 80.5705 16.5797C79.8295 15.3851 80.1944 13.8146 81.389 13.0735V13.0625Z" fill="#F2EBEB"/>
<path opacity="0.7" d="M88.4345 21.8997C88.4345 21.8997 102.548 25.5939 105.733 22.1652C108.907 18.7365 89.6401 20.8379 89.6401 20.8379C89.6401 20.8379 86.7423 21.214 88.4345 21.8997Z" fill="#F2EBEB"/>
<path opacity="0.7" d="M88.2464 21.8555C88.2464 21.8555 100.114 25.3063 103.001 22.5855C105.888 19.8757 89.3304 21.0149 89.3304 21.0149C89.3304 21.0149 86.8307 21.2361 88.2464 21.8555Z" fill="#F2EBEB"/>
<path d="M80.1945 18.1612C80.1945 18.1612 77.905 17.9732 78.4912 16.4247C78.4912 16.4247 77.4072 17.8626 80.1945 18.1612Z" fill="#191717"/>
<path d="M88.9875 14.9096C89.1424 14.6662 89.1645 14.3344 89.3083 14.069C89.4521 13.7925 89.6291 13.527 89.806 13.2726C90.3037 12.5426 90.8899 11.868 91.5314 11.2707C92.5048 10.3527 93.6108 9.60057 94.75 8.8927" stroke="#191717" stroke-width="0.553021" stroke-miterlimit="10" stroke-linecap="round"/>
<path d="M90.0935 15.3851C91.0336 14.4339 92.0401 13.4606 93.1351 12.6753C93.5775 12.3546 94.0421 12.0559 94.5287 11.8237C94.8495 11.6688 95.3583 11.5029 95.5795 11.3481" stroke="#191717" stroke-width="0.553021" stroke-miterlimit="10" stroke-linecap="round"/>
<path d="M91.6641 15.7833C92.1728 15.4957 92.56 15.0533 93.0134 14.7104C93.7434 14.1574 94.5951 13.6597 95.4357 13.3279C96.4311 12.9407 97.3602 12.4651 98.2671 11.9011" stroke="#191717" stroke-width="0.553021" stroke-miterlimit="10" stroke-linecap="round"/>
<path opacity="0.4" d="M88.0695 13.715C88.6888 13.1398 88.9653 12.0117 89.4409 11.3038C89.8059 10.7729 90.3479 10.3526 90.6687 9.78851" stroke="#191717" stroke-width="0.553021" stroke-miterlimit="10" stroke-linecap="round"/>
<path opacity="0.4" d="M89.8612 14.8764C90.3257 14.2902 90.7682 13.6487 91.2769 13.1067C91.9184 12.421 92.6927 11.8569 93.3895 11.2264" stroke="#191717" stroke-width="0.553021" stroke-miterlimit="10" stroke-linecap="round"/>
<path opacity="0.4" d="M90.8567 15.5068C91.83 14.4008 93.3563 13.7814 94.5398 12.9297" stroke="#191717" stroke-width="0.553021" stroke-miterlimit="10" stroke-linecap="round"/>
<path d="M81.8645 13.8699C81.8756 13.9252 81.8977 13.9584 81.9309 14.0026C82.0968 14.257 82.3069 14.4893 82.4949 14.7326C82.6277 14.9206 82.7493 15.1086 82.9042 15.2745" stroke="#0A0A0A" stroke-width="0.553021" stroke-miterlimit="10" stroke-linecap="round"/>
<path d="M81.6434 15.186C81.9642 14.8653 82.1964 14.456 82.5725 14.1795C82.7495 14.0468 82.9375 13.9251 83.1255 13.8035" stroke="#0A0A0A" stroke-width="0.553021" stroke-miterlimit="10" stroke-linecap="round"/>
<path d="M83.7559 11.0716C83.7559 11.0716 80.4599 4.54594 85.8684 4.82245C85.8684 4.82245 80.6922 4.36897 84.0324 11.0716" fill="#191717"/>
<path opacity="0.6" d="M134.91 23.1163C134.91 23.1163 146.955 27.0316 146.645 22.3641C146.336 17.6966 134.855 21.3466 134.855 21.3466" fill="white"/>
<path opacity="0.6" d="M131.393 22.5411C131.393 22.5411 118.773 26.0583 118.828 21.2139C118.895 16.3694 131.349 20.7051 131.349 20.7051" fill="white"/>
<path d="M129.292 20.7604C129.347 19.2451 130.873 18.0617 132.698 18.128C134.534 18.1944 135.972 19.4663 135.917 20.9927C135.861 22.5079 134.335 23.6914 132.51 23.6251C130.674 23.5587 129.236 22.2867 129.292 20.7604Z" fill="#191717"/>
<path d="M133.771 19.1013L132.82 14.5002L133.218 19.0792" fill="#191717"/>
<path opacity="0.6" d="M30.9977 20.8156C30.9977 20.8156 39.4036 23.5476 39.1824 20.2958C38.9612 17.033 30.9535 19.5879 30.9535 19.5879" fill="white"/>
<path opacity="0.6" d="M28.5313 20.4064C28.5313 20.4064 19.7272 22.8618 19.7603 19.4884C19.8046 16.1039 28.4981 19.1345 28.4981 19.1345" fill="white"/>
<path d="M27.0712 19.1676C27.1044 18.1058 28.1773 17.2874 29.4492 17.3316C30.7322 17.3758 31.7387 18.2717 31.6945 19.3225C31.6613 20.3843 30.5884 21.2028 29.3165 21.1585C28.0335 21.1143 27.027 20.2184 27.0712 19.1566V19.1676Z" fill="#191717"/>
<path d="M30.2013 18.0063L29.5377 14.7988L29.8142 17.9952" fill="#191717"/>
<path d="M69.4105 21.4573C69.4105 21.4573 88.2575 23.9127 91.0668 10.7729C93.8762 -2.36688 74.3656 17.929 70.4502 14.4228L69.4105 21.4462V21.4573Z" fill="#191717"/>
<path d="M63.1282 20.8711C63.1282 20.8711 66.5016 23.603 68.5589 22.3864C70.6161 21.1697 71.9765 15.7612 70.959 14.1132C69.9414 12.4652 67.674 12.1223 66.6122 12.62C65.5504 13.1178 61.4691 18.3162 63.1282 20.86V20.8711Z" fill="#191717"/>
<path d="M66.7117 13.7813C66.7117 13.7813 66.7117 13.715 66.6896 13.6044C66.5901 12.5536 65.8822 7.20037 62.2102 7.14507C58.1399 7.07871 52.654 16.2589 58.4496 19.3558C64.2453 22.4527 63.3604 18.8249 63.3604 18.8249" fill="#191717"/>
<path d="M56.9675 10.9388C58.5602 9.95444 60.6396 10.4411 61.6239 12.0338C62.6083 13.6154 62.1217 15.7059 60.529 16.6902C58.9363 17.6746 56.8569 17.1879 55.8725 15.5952C54.8882 14.0136 55.3748 11.9232 56.9675 10.9388Z" fill="#F2EBEB"/>
<path opacity="0.7" d="M66.3247 22.685C66.3247 22.685 85.0721 27.5958 89.2861 23.0389C93.5112 18.4821 67.9174 21.2693 67.9174 21.2693C67.9174 21.2693 64.0683 21.767 66.3136 22.685H66.3247Z" fill="#F2EBEB"/>
<path opacity="0.7" d="M66.0703 22.6185C66.0703 22.6185 81.8314 27.1975 85.6583 23.5918C89.4852 19.9972 67.5081 21.5125 67.5081 21.5125C67.5081 21.5125 64.19 21.8111 66.0703 22.6185Z" fill="#F2EBEB"/>
<path d="M55.3859 17.7189C55.3859 17.7189 52.3443 17.4645 53.1296 15.4072C53.1296 15.4072 51.6918 17.3207 55.3859 17.7189Z" fill="#191717"/>
<path d="M67.0436 13.4053C67.2537 13.0735 67.2869 12.6421 67.4749 12.2992C67.674 11.9342 67.9063 11.5803 68.1386 11.2374C68.8022 10.2752 69.5764 9.37929 70.4281 8.58294C71.7221 7.3663 73.1821 6.3598 74.6974 5.43073" stroke="#191717" stroke-width="0.553021" stroke-miterlimit="10" stroke-linecap="round"/>
<path d="M68.5146 14.0247C69.7645 12.7638 71.0917 11.4587 72.5406 10.4301C73.1379 10.0098 73.7462 9.60054 74.3988 9.29084C74.8191 9.09176 75.5048 8.87055 75.7924 8.6604" stroke="#191717" stroke-width="0.553021" stroke-miterlimit="10" stroke-linecap="round"/>
<path d="M70.6161 14.5555C71.2908 14.1795 71.7996 13.5933 72.4079 13.1287C73.3701 12.3987 74.5094 11.7351 75.6265 11.2927C76.9537 10.7729 78.1814 10.1535 79.387 9.40137" stroke="#191717" stroke-width="0.553021" stroke-miterlimit="10" stroke-linecap="round"/>
<path opacity="0.4" d="M65.838 11.8125C66.6675 11.0604 67.0215 9.5451 67.6519 8.60496C68.1275 7.8971 68.8575 7.33301 69.2778 6.60303" stroke="#191717" stroke-width="0.553021" stroke-miterlimit="10" stroke-linecap="round"/>
<path opacity="0.4" d="M68.2159 13.3611C68.8243 12.5758 69.4215 11.7352 70.1073 11.0052C70.9589 10.0872 71.9875 9.34613 72.9166 8.5166" stroke="#191717" stroke-width="0.553021" stroke-miterlimit="10" stroke-linecap="round"/>
<path opacity="0.4" d="M69.5321 14.2016C70.8262 12.7305 72.8502 11.912 74.4208 10.7728" stroke="#191717" stroke-width="0.553021" stroke-miterlimit="10" stroke-linecap="round"/>
<path d="M57.598 12.0116C57.6091 12.089 57.6423 12.1222 57.6865 12.1886C57.9077 12.5204 58.1953 12.8301 58.4276 13.1619C58.6045 13.4052 58.7594 13.6596 58.9695 13.8808" stroke="#0A0A0A" stroke-width="0.553021" stroke-miterlimit="10" stroke-linecap="round"/>
<path d="M57.2993 13.7703C57.7196 13.35 58.0293 12.808 58.527 12.432C58.7593 12.255 59.0137 12.0891 59.257 11.9343" stroke="#0A0A0A" stroke-width="0.553021" stroke-miterlimit="10" stroke-linecap="round"/>
<path d="M60.1087 8.30641C60.1087 8.30641 55.7288 -0.353894 62.9181 0.0110993C62.9181 0.0110993 56.0496 -0.586163 60.4737 8.30641" fill="#191717"/>
</svg>
