<svg width="57" height="56" viewBox="0 0 57 56" fill="none" xmlns="http://www.w3.org/2000/svg">
<rect x="0.471191" width="56" height="56" rx="8" fill="white"/>
<path d="M32.3729 17.8814L23.5026 22.1394C22.8199 22.4671 22.0904 22.5492 21.3469 22.3826C20.8602 22.2736 20.6169 22.2191 20.4209 22.1967C17.9878 21.9188 16.4712 23.8446 16.4712 26.0591V27.2743C16.4712 29.4888 17.9878 31.4146 20.4209 31.1367C20.6169 31.1143 20.8602 31.0598 21.3469 30.9508C22.0904 30.7842 22.8199 30.8663 23.5026 31.194L32.3729 35.452C34.4091 36.4295 35.4272 36.9182 36.5624 36.5372C37.6975 36.1563 38.0871 35.3388 38.8664 33.704C41.0061 29.215 41.0061 24.1185 38.8664 19.6293C38.0871 17.9945 37.6975 17.1771 36.5624 16.7962C35.4272 16.4152 34.4091 16.9039 32.3729 17.8814Z" stroke="black" stroke-width="2" stroke-linecap="round" stroke-linejoin="round"/>
<path d="M29.8045 34.6666V35.3333C29.8045 37.0454 29.8045 37.9014 29.5058 38.3848C29.1076 39.0292 28.3794 39.3933 27.6249 39.3252C27.059 39.2742 26.3742 38.7605 25.0045 37.7333L23.4045 36.5333C22.1012 35.5558 21.8045 34.9624 21.8045 33.3333V31.3333" stroke="black" stroke-width="2" stroke-linecap="round" stroke-linejoin="round"/>
<path d="M22.4712 30.6667V22.6667" stroke="black" stroke-width="2" stroke-linecap="round" stroke-linejoin="round"/>
</svg>
