<svg width="312" height="310" viewBox="0 0 312 310" fill="none" xmlns="http://www.w3.org/2000/svg">
<path d="M42.7123 250.178C41.7911 247.832 43.4014 242.991 44.9765 241.017C46.5446 239.044 48.2393 237.14 50.3629 235.784C54.7929 232.96 56.6914 231.885 59.2862 227.726C61.8809 223.568 61.6207 218.208 59.2862 214.105C59.9261 214.485 61.8035 215.918 62.2958 216.367C66.3953 220.301 67.9423 223.392 68.3642 229.209C68.554 231.822 67.7032 235.426 67.0844 237.168C66.3672 239.184 65.0593 242.268 62.4716 244.699C59.0893 247.867 56.6282 248.632 52.6201 249.504C48.8581 250.318 46.2915 250.297 42.438 250.122" stroke="#231F20" stroke-width="0.394297" stroke-miterlimit="10"/>
<path d="M182.23 181.075C182.23 181.075 182.167 181.068 182.139 181.068C182.125 181.061 182.118 181.061 182.104 181.054L182.23 181.075Z" fill="#231F20"/>
<path d="M222.305 198.272C206.589 196.186 190.31 194.858 173.912 194.332C168.772 194.17 164.159 194.156 159.743 195.666C154.047 197.619 149.512 201.932 145.349 206.182C131.918 219.895 120.808 235.118 109.037 251.24L106.027 255.357C103.643 253.474 101.442 251.394 99.5931 249.238C104.276 242.417 109.107 235.849 113.945 229.28C123.297 216.362 133.437 204.258 144.554 193.116C148.499 189.168 152.317 183.935 157.422 181.68C164.96 178.357 173.933 180.338 182.139 181.069C183.18 181.413 183.89 181.694 184.938 182.045C186.358 183.914 188.665 185.002 190.978 185.143C193.284 185.276 195.584 184.546 197.602 183.422C199.62 182.298 201.392 180.78 203.115 179.242C203.199 179.439 203.157 179.727 203.122 180.022C208.754 181.799 214.548 183.028 220.399 183.801C221.946 188.515 222.537 193.418 222.305 198.272Z" fill="#231F20"/>
<path d="M230.961 224.679C230.891 224.82 230.701 224.883 230.511 224.946C222.34 227.061 213.712 226.906 205.534 223.323C197.792 219.93 188.573 215.336 180.951 211.676C176.057 209.323 174.123 208.522 170.544 211.212C163.878 216.207 165.003 215.09 162.007 217.338C158.098 220.275 160.833 218.603 155.397 222.677C151.635 225.845 140.814 234.83 138.374 237.373C127.988 248.198 124.331 249.695 114.944 261.082C112.117 259.67 109.241 257.858 106.576 255.792L109.607 251.648C121.357 235.554 132.46 220.352 145.855 206.674C149.955 202.487 154.427 198.237 159.975 196.334C164.279 194.858 168.821 194.873 173.891 195.034C190.261 195.561 206.518 196.889 222.213 198.968L222.305 198.28C222.263 199.116 222.206 199.959 222.115 200.794C225.286 201.083 228.472 201.314 231.657 201.546C229.955 202.614 228.507 203.977 227.543 205.656C226.587 207.342 226.137 207.257 226.594 209.14C227.171 211.521 229.048 215.455 230.145 217.64C231.228 219.797 230.869 222.241 230.961 224.679Z" fill="#231F20"/>
<path d="M108.698 152.877C101.132 146.723 89.241 150.446 85.3525 158.925C81.1686 168.057 87.4128 179.093 97.2713 180.576C103.48 181.51 110.09 178.145 113.297 172.743" stroke="#231F20" stroke-width="0.394297" stroke-miterlimit="10"/>
<path d="M245.474 127.215C245.474 125.585 245.727 124.019 245.826 122.003C241.86 122.003 239.708 121.476 236.916 118.926C235.644 120.078 234.511 121.16 233.091 122.445C233.857 124.799 234.35 127.37 234.385 129.779C234.448 130.081 234.701 130.13 234.997 130.215C236.67 130.685 238.273 131.437 239.947 131.908L245.467 127.222L245.474 127.215Z" fill="#231F20"/>
<path d="M148.408 189.364L73.266 189.174V31.8168H203.403L203.002 163.653" stroke="#231F20" stroke-width="0.394297" stroke-miterlimit="10"/>
<path d="M143.569 194.514L76.022 194.304C71.81 194.304 68.3996 190.939 68.3996 186.787V34.1437C68.3996 34.1015 68.3996 34.0593 68.3996 34.0172C68.3996 30.0271 71.6623 26.7886 75.7126 26.7605L95.8165 26.613" stroke="#231F20" stroke-width="0.394297" stroke-miterlimit="10"/>
<path d="M177.955 26.6751L201.525 26.6329C205.737 26.6329 209.148 30.0401 209.148 34.248L208.831 139.045" stroke="#231F20" stroke-width="0.394297" stroke-miterlimit="10"/>
<path d="M250.046 88.74C248.555 84.9957 246.966 84.6585 243.436 81.3077C239.899 77.9568 236.172 72.8848 234.428 68.3397C233.141 64.9818 232.951 60.1768 233.626 56.6503C234.168 53.8193 235.778 50.9602 237.663 48.7825C239.547 46.6048 242.599 45.242 245.384 46.0147C248.133 46.7804 250.032 49.4358 250.707 52.2106C251.382 54.9854 251.058 57.8867 250.538 60.1627C251.705 58.273 254.328 57.6197 256.438 58.3222C258.547 59.0247 260.143 60.8231 261.114 62.8182C265.199 71.2691 259.989 81.5816 263.195 90.4049C264.158 93.0462 264.721 94.7954 264.088 97.5351C263.547 99.8744 260.488 101.624 258.343 102.712C256.198 103.801 255.777 105.403 254.265 107.075C253.182 103.134 252.837 103.64 252.394 101.673C251.909 99.5021 251.15 95.8211 250.981 92.3719C252.008 92.3578 255.045 91.6342 255.045 89.7094C255.045 88.7259 254.314 87.5387 252.915 87.5387C251.888 87.5387 250.946 88.6417 250.243 89.4003L250.046 88.747V88.74Z" fill="#231F20"/>
<path d="M238.421 87.743C238.907 87.743 239.3 86.9945 239.3 86.0711C239.3 85.1477 238.907 84.3992 238.421 84.3992C237.936 84.3992 237.542 85.1477 237.542 86.0711C237.542 86.9945 237.936 87.743 238.421 87.743Z" fill="#231F20"/>
<path d="M246.507 89.4139C246.993 89.4139 247.386 88.6653 247.386 87.7419C247.386 86.8186 246.993 86.07 246.507 86.07C246.022 86.07 245.628 86.8186 245.628 87.7419C245.628 88.6653 246.022 89.4139 246.507 89.4139Z" fill="#231F20"/>
<path d="M242.211 87.0334C241.423 88.8107 240.284 90.4335 238.927 91.6629C239.194 92.3865 240.115 92.7798 240.825 92.4777" stroke="#231F20" stroke-width="0.394297" stroke-miterlimit="10"/>
<path d="M245.151 95.0061C243.547 96.2073 241.445 96.7271 239.462 96.404C239.082 96.3408 238.702 96.2494 238.379 96.0457C238.055 95.842 237.577 95.2378 237.542 94.9357C237.577 96.2775 238.555 98.0337 239.701 98.5395C240.193 98.7573 240.636 98.8346 241.164 98.7433C242.246 98.5536 243.083 97.7246 243.386 97.4155C244.293 96.5093 244.616 95.9123 245.249 94.9147" stroke="#231F20" stroke-width="0.394297" stroke-miterlimit="10"/>
<path d="M240.276 75.7646C237.203 80.2324 234.447 84.918 233.568 89.5122C233.125 91.8164 233.202 94.0925 233.842 96.6355C234.594 99.621 236.908 102.41 239.967 102.796C243.026 103.183 246.141 102.115 248.644 100.324" stroke="#231F20" stroke-width="0.394297" stroke-miterlimit="10"/>
<path d="M263.017 88.7614C262.701 87.9956 262.863 87.2018 263.074 86.4923C263.432 85.3051 263.931 84.1741 264.677 83.2187C265.429 82.2704 266.442 81.5116 267.658 81.1604C268.186 81.0129 268.762 80.9356 269.346 81.0831C269.929 81.2306 270.506 81.61 270.78 82.1439C271.026 82.6286 270.991 83.1695 270.801 83.6121C270.372 84.6307 269.247 85.1506 268.115 85.4105C266.983 85.6704 265.774 85.7477 264.74 86.2113C263.706 86.675 262.87 87.6514 263.074 88.8316L263.01 88.7543L263.017 88.7614Z" fill="#231F20"/>
<path d="M263.622 88.4113C264.065 88.1022 264.628 88.0952 265.155 88.1233C266.034 88.1795 266.906 88.334 267.715 88.6642C268.523 88.9944 269.262 89.5283 269.775 90.2448C269.993 90.5539 270.176 90.9051 270.211 91.2915C270.246 91.6779 270.119 92.0923 269.824 92.3382C269.557 92.563 269.184 92.6122 268.847 92.556C268.066 92.4296 267.461 91.7973 267.032 91.1299C266.604 90.4626 266.273 89.7109 265.725 89.1279C265.176 88.5448 264.332 88.1584 263.587 88.4534L263.622 88.4043V88.4113Z" fill="#231F20"/>
<path d="M241.831 102.867C240.425 108.093 238.174 112.99 235.158 117.689C237.309 120 240.305 121.616 243.448 121.96C246.591 122.305 249.84 121.49 252.526 119.67C253.173 115.02 253.82 110.369 254.467 105.712" stroke="#231F20" stroke-width="0.394297" stroke-miterlimit="10"/>
<path d="M235.159 117.689C233.851 116.383 233.879 114.107 234.146 112.337" stroke="#231F20" stroke-width="0.394297" stroke-miterlimit="10"/>
<path d="M252.456 119.672C254.179 118.555 254.805 118.028 256.31 116.728" stroke="#231F20" stroke-width="0.394297" stroke-miterlimit="10"/>
<path d="M232.429 163.19C232.563 160.464 240.03 131.62 240.03 131.62L234.391 129.78C226.579 139.579 220.742 151.023 217.36 163.19H232.429Z" fill="#231F20"/>
<path d="M209.147 116.728C220.455 113.25 228.822 113.257 238.653 111.705" stroke="#231F20" stroke-width="0.394297" stroke-miterlimit="10"/>
<path d="M253.054 114.866C260.213 118.94 267.505 123.113 273.06 129.197C277.026 133.531 280 138.757 281.723 144.37C282.799 147.862 283.39 151.486 283.692 155.132C284.1 159.951 284.001 164.806 283.045 169.667C282.25 175.153 280.429 180.492 277.715 185.325C276.618 187.285 275.24 189.266 273.151 190.088C271.063 190.903 268.201 190.917 265.965 190.763C264.073 190.636 262.358 190.51 259.749 190.208C257.14 189.906 255.537 189.73 252.921 189.308C238.703 187.025 224.477 184.735 210.266 182.248C210.126 176.123 210.59 169.983 211.947 163.878C226.376 162.895 240.897 163.162 255.284 164.686" stroke="#231F20" stroke-width="0.394297" stroke-miterlimit="10"/>
<path d="M258.565 143.527C254.17 151.929 253.516 162.192 256.793 171.086" stroke="#231F20" stroke-width="0.394297" stroke-miterlimit="10"/>
<path d="M260.002 118.926C249.088 131.318 240.931 147.032 237.542 163.189" stroke="#231F20" stroke-width="0.394297" stroke-miterlimit="10"/>
<path d="M230.426 112.779C230.426 112.779 217.178 146.028 212.509 163.899" stroke="#231F20" stroke-width="0.394297" stroke-miterlimit="10"/>
<path d="M213.564 128.809C205.787 141.152 206.047 153.418 206.047 164.622" stroke="#231F20" stroke-width="0.394297" stroke-miterlimit="10"/>
<path d="M212.178 163.738C210.048 164.054 207.91 164.377 205.681 164.679C204.183 170.116 203.438 175.062 203.403 180.358C205.969 181.23 207.601 181.63 210.28 182.248" stroke="#231F20" stroke-width="0.394297" stroke-miterlimit="10"/>
<path d="M187.032 160.716C190.133 160.864 193.361 160.997 196.455 161.145C197.376 161.187 198.276 161.475 198.747 161.629C199.886 161.995 200.533 162.255 201.539 162.915C202.657 163.652 204.598 164.952 205.491 165.823" stroke="#231F20" stroke-width="0.394297" stroke-miterlimit="10"/>
<path d="M192.102 164.453C190.632 166.87 187.862 168.261 185.091 168.5C182.321 168.739 179.543 167.959 177.096 166.877C176.428 168.191 176.554 169.856 177.286 171.134C178.017 172.413 179.297 173.319 180.689 173.726C182.081 174.134 183.579 174.085 184.993 173.74" stroke="#231F20" stroke-width="0.394297" stroke-miterlimit="10"/>
<path d="M178.377 172.483C178.525 174.394 179.6 176.213 181.197 177.225C182.793 178.236 184.86 178.419 186.604 177.702" stroke="#231F20" stroke-width="0.394297" stroke-miterlimit="10"/>
<path d="M181.71 177.752C181.71 178.883 182.16 180.007 182.947 180.801C183.735 181.594 184.839 182.051 185.943 182.03C186.772 182.016 187.567 181.756 188.348 181.468" stroke="#231F20" stroke-width="0.394297" stroke-miterlimit="10"/>
<path d="M185.238 182.185C186.42 184.321 188.128 184.827 190.519 185.066C192.91 185.304 195.322 184.567 197.417 183.366C199.513 182.164 201.77 180.542 203.605 178.476" stroke="#231F20" stroke-width="0.394297" stroke-miterlimit="10"/>
<path d="M176.787 166.921L164.249 140.753L175.212 136.517L190.168 166.738" stroke="#231F20" stroke-width="0.394297" stroke-miterlimit="10"/>
<path d="M161.606 132.493L171.848 128.547C173.98 127.725 176.38 128.788 177.202 130.919L177.344 131.286C178.166 133.416 177.102 135.813 174.97 136.635L164.335 140.732C162.216 141.549 159.834 140.494 159.017 138.377L159.007 138.351C158.106 136.017 159.273 133.399 161.602 132.502L161.606 132.493Z" stroke="#231F20" stroke-width="0.394297" stroke-miterlimit="10"/>
<path d="M150.2 133.65C174.084 133.65 193.446 114.464 193.446 90.798C193.446 67.1317 174.084 47.9463 150.2 47.9463C126.316 47.9463 106.955 67.1317 106.955 90.798C106.955 114.464 126.316 133.65 150.2 133.65Z" stroke="#231F20" stroke-width="0.394297" stroke-miterlimit="10"/>
<path d="M150.285 129.408C171.742 129.408 189.136 112.15 189.136 90.8622C189.136 69.5741 171.742 52.3167 150.285 52.3167C128.829 52.3167 111.435 69.5741 111.435 90.8622C111.435 112.15 128.829 129.408 150.285 129.408Z" stroke="#231F20" stroke-width="0.394297" stroke-miterlimit="10"/>
<path d="M98.2841 164.777L111.546 149.926C111.546 149.926 124.477 159.48 115.196 174.078L98.2841 164.77V164.777Z" fill="#231F20"/>
<path d="M162.52 151.156H132.101C130.404 151.156 129.028 152.531 129.028 154.226V154.233C129.028 155.929 130.404 157.303 132.101 157.303H162.52C164.217 157.303 165.593 155.929 165.593 154.233V154.226C165.593 152.531 164.217 151.156 162.52 151.156Z" stroke="#231F20" stroke-width="0.394297" stroke-miterlimit="10"/>
<path d="M162.52 161.553H132.101C130.404 161.553 129.028 162.928 129.028 164.623V164.63C129.028 166.326 130.404 167.7 132.101 167.7H162.52C164.217 167.7 165.593 166.326 165.593 164.63V164.623C165.593 162.928 164.217 161.553 162.52 161.553Z" stroke="#231F20" stroke-width="0.394297" stroke-miterlimit="10"/>
<path d="M162.52 171.95H132.101C130.404 171.95 129.028 173.324 129.028 175.02V175.027C129.028 176.722 130.404 178.096 132.101 178.096H162.52C164.217 178.096 165.593 176.722 165.593 175.027V175.02C165.593 173.324 164.217 171.95 162.52 171.95Z" stroke="#231F20" stroke-width="0.394297" stroke-miterlimit="10"/>
<path d="M148.428 141.596H79.8681V143.001H148.428V141.596Z" stroke="#231F20" stroke-width="0.394297" stroke-miterlimit="10"/>
<path d="M95.4579 108.101H84.0312V141.596H95.4579V108.101Z" fill="#231F20"/>
<path d="M111.701 112.062H100.274V141.588H111.701V112.062Z" fill="#231F20"/>
<path d="M117.038 118.456L117.263 141.484H129.055L128.943 128.249C128.943 128.249 120.533 122.917 117.038 118.456Z" fill="#231F20"/>
<path d="M84.0524 62.7195L83.9681 99.284" stroke="#231F20" stroke-width="0.394297" stroke-miterlimit="10"/>
<path d="M85.8598 62.7195L85.7966 99.284" stroke="#231F20" stroke-width="0.394297" stroke-miterlimit="10"/>
<path d="M79.8192 99.1093H107.813" stroke="#231F20" stroke-width="0.394297" stroke-miterlimit="10"/>
<path d="M86.12 71.444L111.42 71.739" stroke="#231F20" stroke-width="0.394297" stroke-miterlimit="10"/>
<path d="M85.9381 77.4374L109.037 77.7746" stroke="#231F20" stroke-width="0.394297" stroke-miterlimit="10"/>
<path d="M85.6415 84.1381L107.342 84.4613" stroke="#231F20" stroke-width="0.394297" stroke-miterlimit="10"/>
<path d="M85.7689 91.1628L106.991 91.4088" stroke="#231F20" stroke-width="0.394297" stroke-miterlimit="10"/>
<path d="M107.272 87.0764L103.96 90.6099L102.561 88.2496L98.3628 91.193L91.1974 80.9999L85.7689 82.6156" stroke="#231F20" stroke-width="0.394297" stroke-miterlimit="10"/>
<path d="M85.6138 89.5688L91.0845 86.8852L93.1589 89.5688L101.056 82.0732L104.03 85.5084L108.242 80.605" stroke="#231F20" stroke-width="0.394297" stroke-miterlimit="10"/>
<path d="M111.869 85.5018L130.855 105.818L138.245 98.4346L142.535 104.623L155.719 89.7869L158.658 90.5808L160.241 85.9373L170.324 69.6326L176.217 68.6069" stroke="#231F20" stroke-width="0.394297" stroke-miterlimit="10"/>
<path d="M115.914 72.9419L175.487 73.4056" stroke="#231F20" stroke-width="0.394297" stroke-miterlimit="10"/>
<path d="M112.284 82.5314L176.048 82.9177" stroke="#231F20" stroke-width="0.394297" stroke-miterlimit="10"/>
<path d="M111.301 92.3157L175.754 92.7021" stroke="#231F20" stroke-width="0.394297" stroke-miterlimit="10"/>
<path d="M112.988 101.259L175.465 101.273" stroke="#231F20" stroke-width="0.394297" stroke-miterlimit="10"/>
<path d="M116.792 109.998L175.669 110.377" stroke="#231F20" stroke-width="0.394297" stroke-miterlimit="10"/>
<path d="M111.73 93.49L117.806 99.131L131.208 85.8258L142.424 91.2139L160.214 77.1501L163.421 78.3233L171.514 74.7055L175.143 77.1501L178.342 71.1649" stroke="#231F20" stroke-width="0.394297" stroke-miterlimit="10"/>
<path d="M172.399 20.7322H101.006C97.9416 20.7322 95.4576 23.2136 95.4576 26.2747C95.4576 29.3358 97.9416 31.8174 101.006 31.8174H172.399C175.463 31.8174 177.947 29.3358 177.947 26.2747C177.947 23.2136 175.463 20.7322 172.399 20.7322Z" stroke="#231F20" stroke-width="0.394297" stroke-miterlimit="10"/>
<path d="M159.11 12.5977H114.303C112.055 12.5977 110.232 14.4188 110.232 16.6651C110.232 18.9115 112.055 20.7326 114.303 20.7326H159.11C161.358 20.7326 163.181 18.9115 163.181 16.6651C163.181 14.4188 161.358 12.5977 159.11 12.5977Z" stroke="#231F20" stroke-width="0.394297" stroke-miterlimit="10"/>
<path d="M128.05 12.5485C126.496 10.5534 126.517 7.60296 127.755 5.39715C128.992 3.19134 131.263 1.69501 133.689 0.978473C137.128 -0.0331087 141.122 0.507858 143.808 2.87524C146.494 5.24262 147.465 9.54885 145.58 12.5976" stroke="#231F20" stroke-width="0.394297" stroke-miterlimit="10"/>
<path d="M136.706 9.79434C139.619 9.79434 141.98 8.53628 141.98 6.98439C141.98 5.4325 139.619 4.17444 136.706 4.17444C133.793 4.17444 131.432 5.4325 131.432 6.98439C131.432 8.53628 133.793 9.79434 136.706 9.79434Z" stroke="#231F20" stroke-width="0.394297" stroke-miterlimit="10"/>
<path opacity="0.99" d="M195.259 217.935C182.201 239.122 175.015 254.661 158.849 284.405C155.839 284.145 152.745 283.428 149.651 282.403L150.003 282.487C156.247 257.289 174.487 213.229 174.67 212.786L174.023 212.519C173.84 212.955 155.593 257.029 149.328 282.29C146.339 281.286 143.358 279.993 140.447 278.539C146.55 254.689 152.576 222.515 158.757 206.983L159.024 206.78C163.047 204.792 166.738 205.164 171.119 206.155C175.331 207.103 179.951 209.281 183.84 211.536C187.798 213.833 191.286 215.631 195.259 217.935Z" fill="#231F20"/>
<path d="M149.623 282.395L149.321 282.317C149.321 282.317 149.328 282.296 149.328 282.289C149.426 282.324 149.525 282.36 149.623 282.395Z" fill="#231F20"/>
<path d="M106.575 255.792L106.512 255.883L105.943 255.469L106.027 255.356C106.202 255.511 106.392 255.651 106.575 255.792Z" fill="#231F20"/>
<path d="M142.227 278.552C141.116 282.106 138.261 284.923 134.942 285.485C131.236 286.111 128.866 285.436 125.892 284.769C123.346 284.2 120.709 283.273 118.192 283.968C116.202 284.516 114.746 285.289 113.305 286.757C112.229 287.86 111.392 289.005 110.724 290.396C110.366 291.133 109.909 292.04 109.909 292.939C109.909 295.243 111.013 295.903 112.053 296.332C124.507 301.495 131.686 304.298 143.577 307.684C145.053 308.105 150.271 309.995 153.084 309.461C155.158 309.068 156.832 307.171 157.366 304.818C158.716 298.91 159.047 289.988 157.275 283.792" stroke="#231F20" stroke-width="0.394297" stroke-miterlimit="10"/>
<path d="M138.978 283.307C144.491 287.431 151.227 289.911 158.104 290.339" stroke="#231F20" stroke-width="0.394297" stroke-miterlimit="10"/>
<path d="M127.627 285.1C127.909 288.57 126.144 293.881 124.54 296.979" stroke="#231F20" stroke-width="0.394297" stroke-miterlimit="10"/>
<path d="M110.238 291.451C125.581 298.293 147.112 305.044 157.547 303.969" stroke="#231F20" stroke-width="0.394297" stroke-miterlimit="10"/>
<path d="M100.45 250.249C96.9482 253.411 91.6322 254.401 87.2303 252.722C84.516 251.689 82.1955 249.758 79.418 248.915C76.6967 248.086 73.6449 248.409 71.1556 249.786C69.3696 250.769 67.8859 252.294 66.9155 254.057C66.2826 255.216 67.246 257.225 68.3992 258.377L72.6605 262.304C78.8273 267.376 92.0259 277.674 97.3771 280.491C99.6343 281.679 102.25 282.69 104.69 281.924C107.222 281.131 108.804 278.658 109.936 276.262C112.327 271.183 113.635 265.599 113.761 259.986" stroke="#231F20" stroke-width="0.394297" stroke-miterlimit="10"/>
<path d="M95.2959 252.855C99.2056 259.261 105.717 264.038 113.009 265.844" stroke="#231F20" stroke-width="0.394297" stroke-miterlimit="10"/>
<path d="M85.1634 251.85C84.4251 255.735 82.5616 259.402 79.8615 262.289" stroke="#231F20" stroke-width="0.394297" stroke-miterlimit="10"/>
<path d="M67.9077 252.708C80.0938 263.877 92.8283 274.709 108.671 278.552" stroke="#231F20" stroke-width="0.394297" stroke-miterlimit="10"/>
<path d="M14.628 276.888L21.1886 297.492L40.8705 297.766L46.6506 276.692L14.628 276.888Z" stroke="#231F20" stroke-width="0.394297" stroke-miterlimit="10"/>
<path d="M12.5809 267.559H51.0658C51.9589 267.559 52.6902 268.283 52.6902 269.182V274.999C52.6902 275.933 51.9307 276.699 50.9885 276.699H12.6372C10.0987 276.699 8.03842 274.64 8.03842 272.104C8.03842 269.596 10.0776 267.566 12.5809 267.566V267.559Z" stroke="#231F20" stroke-width="0.394297" stroke-miterlimit="10"/>
<path d="M28.9161 242.698C23.1008 237.999 22.9461 229.14 25.3018 222.052C27.6574 214.964 32.4039 208.958 36.0745 202.446C39.7521 195.941 42.4171 188.164 40.1177 182.109C51.6076 189.141 58.0487 203.57 55.6017 216.812C53.1617 230.053 41.8546 240.183 28.6067 242.663" stroke="#231F20" stroke-width="0.394297" stroke-miterlimit="10"/>
<path d="M44.0547 192.231C47.8026 200.268 45.9743 209.85 42.3811 217.957C38.7879 226.063 33.5492 233.369 30.188 241.574C26.8339 249.779 25.5752 259.558 30.0052 267.243" stroke="#231F20" stroke-width="0.394297" stroke-miterlimit="10"/>
<path d="M63.7933 224.616C64.8551 227.981 63.7933 231.739 61.7611 234.627C59.7289 237.514 56.8248 239.663 53.8855 241.616C50.9462 243.569 47.8874 245.41 45.3419 247.854C40.1946 252.807 37.5366 260.218 38.3523 267.313" stroke="#231F20" stroke-width="0.394297" stroke-miterlimit="10"/>
<path d="M17.1099 259.142C13.3339 259.761 9.39607 258.187 6.65368 255.511C3.91832 252.834 2.28695 249.181 1.52049 245.437C-0.434341 235.939 3.18702 225.514 11.2032 219.382C9.14293 223.688 10.1555 228.858 12.0681 233.235C13.9808 237.611 16.7372 241.608 18.2913 246.125C19.8453 250.642 20.1547 255.546 17.124 259.234" stroke="#231F20" stroke-width="0.394297" stroke-miterlimit="10"/>
<path d="M7.27289 232.104C8.4261 245.234 14.7266 258.286 24.1069 267.559" stroke="#231F20" stroke-width="0.394297" stroke-miterlimit="10"/>
<path d="M235.356 100.127C233.928 104.012 233.098 106.021 231.734 112.779" stroke="#231F20" stroke-width="0.394297" stroke-miterlimit="10"/>
<path d="M263.447 93.6999C275.57 96.3904 287.693 99.0809 299.808 101.771C302.677 102.411 305.68 103.148 308.064 104.855C311.186 107.096 311.024 110.728 310.623 114.079C310.623 114.079 302.375 203.428 285.97 217.155" stroke="#231F20" stroke-width="0.394297" stroke-miterlimit="10"/>
<path d="M301.777 113.573C302.333 111.655 302.347 111.177 303.254 109.667C304.161 108.157 306.06 107.335 307.375 108.501C308.472 109.47 307.846 111.873 307.663 113.327C303.725 144.293 299.71 175.546 289.127 204.917C288.058 207.875 286.35 212.062 284.514 213.424C283.853 213.909 283.249 214.183 282.44 214.036C280.633 213.712 280.661 211.205 280.97 209.399C285.386 183.716 290.435 158.181 296.475 132.828C297.973 126.548 299.998 119.537 301.876 113.208" stroke="#231F20" stroke-width="0.394297" stroke-miterlimit="10"/>
<path d="M255.846 202.382C265.817 206.316 275.443 211.135 284.662 217.155C286.652 216.474 288.951 217.914 289.648 219.902C290.344 221.89 289.711 224.152 288.48 225.859C287.25 227.566 285.555 228.908 283.734 229.969C273.024 236.214 266.14 238.574 252.457 241.707C245.024 243.042 239.307 244.651 232.979 244.89C224.927 245.192 217.973 241.019 209.148 236.741C202.77 233.306 197.201 230.608 189.157 227.714" stroke="#231F20" stroke-width="0.394297" stroke-miterlimit="10"/>
<path d="M231.235 227.791C229.013 228.81 226.756 229.969 225.195 231.851C223.634 233.734 222.924 236.523 224.105 238.672C225.005 240.323 226.847 241.293 228.704 241.602C230.56 241.911 232.459 241.672 234.322 241.419C243.084 240.253 251.867 239.031 260.389 236.698C269.411 234.233 281.562 228.627 284.663 225.529C286.463 223.73 287.201 222.543 286.737 220.583C286.231 218.42 281.069 218.483 279.642 218.349C265.628 217.001 255.804 219.677 242.992 223.983" stroke="#231F20" stroke-width="0.394297" stroke-miterlimit="10"/>
<path d="M244.032 243.463C244.158 255.813 244.278 268.17 243.863 280.337C242.098 283.421 238.519 285.079 234.996 285.542C231.473 285.999 227.908 285.451 224.364 285.135C220.82 284.819 217.135 284.755 213.852 286.118C209.836 287.783 206.806 291.633 206.131 295.925" stroke="#231F20" stroke-width="0.394297" stroke-miterlimit="10"/>
<path d="M211.735 297.309C212.135 293.277 216.158 291.022 220.194 290.572C224.23 290.123 228.259 291.218 232.317 291.443C238.273 291.78 243.441 289.582 248.63 284.397C251.359 288.099 256.021 291.268 260.62 291.527C265.211 291.794 270.344 290.86 274.943 291.092C279.542 291.317 285.203 293.059 286.173 297.246" stroke="#231F20" stroke-width="0.394297" stroke-miterlimit="10"/>
<path d="M252.703 242.254C252.829 255.039 252.949 267.831 252.59 280.589C256.176 284.256 261.696 285.218 266.829 285.309C271.963 285.401 276.252 284.796 281.266 285.885C286.279 286.974 290.126 290.149 291.23 295.931" stroke="#231F20" stroke-width="0.394297" stroke-miterlimit="10"/>
<path d="M207.882 308.043C211.229 308.043 213.943 305.332 213.943 301.987C213.943 298.643 211.229 295.932 207.882 295.932C204.534 295.932 201.82 298.643 201.82 301.987C201.82 305.332 204.534 308.043 207.882 308.043Z" fill="#231F20"/>
<path d="M289.935 308.043C293.283 308.043 295.996 305.332 295.996 301.987C295.996 298.643 293.283 295.932 289.935 295.932C286.587 295.932 283.874 298.643 283.874 301.987C283.874 305.332 286.587 308.043 289.935 308.043Z" fill="#231F20"/>
<path d="M230.094 234.753C229.342 235.069 228.568 235.399 228.006 235.982C227.443 236.565 227.134 237.485 227.492 238.216C227.788 238.813 228.463 239.157 229.124 239.227C229.785 239.298 230.453 239.15 231.107 239.003C235.122 238.096 239.172 237.176 242.948 235.532C243.63 235.237 244.312 234.907 244.826 234.366C245.339 233.825 245.648 233.046 245.43 232.336C245.212 231.627 244.354 231.121 243.686 231.437" stroke="#231F20" stroke-width="0.394297" stroke-miterlimit="10"/>
<path d="M286.596 177.598L279.311 182.431" stroke="#231F20" stroke-width="0.394297" stroke-miterlimit="10"/>
<path d="M258.258 190.031C250.734 190.923 241.128 192.532 236.016 198.117C231.242 203.343 230.475 211.021 230.588 218.095C230.693 225.169 231.389 232.517 228.738 239.079" stroke="#231F20" stroke-width="0.394297" stroke-miterlimit="10"/>
<path d="M285.562 186.576C277.377 192.153 267.997 195.975 258.244 197.717C252.597 198.729 246.023 199.53 242.978 204.384C241.142 207.306 241.142 210.98 241.283 214.429C241.571 221.468 242.204 228.493 243.182 235.476" stroke="#231F20" stroke-width="0.394297" stroke-miterlimit="10"/>
<path d="M220.742 183.857C222.17 189.47 222.676 195.315 222.5 200.927C225.517 201.553 228.618 201.763 231.859 201.609C230.622 202.592 229.377 203.583 228.379 204.805C227.38 206.027 226.635 207.517 226.508 209.069C227.303 212.315 228.611 215.441 230.376 218.279" stroke="#231F20" stroke-width="0.394297" stroke-miterlimit="10"/>
<path d="M257.301 198.117C254.608 206.491 249.053 213.923 241.775 218.882" stroke="#231F20" stroke-width="0.394297" stroke-miterlimit="10"/>
</svg>
