<svg width="135" height="97" viewBox="0 0 135 97" fill="none" xmlns="http://www.w3.org/2000/svg">
<g clip-path="url(#clip0_57_331)">
<path d="M9.27327 87.3274H5.79663V96.6007H0V72.2608H9.27327C12.3621 72.2608 13.9099 73.8053 13.9099 76.8975V82.6908C13.9099 85.783 12.3655 87.3274 9.27327 87.3274ZM8.11328 81.5341V78.0575H5.79663V81.5341H8.11328Z" fill="black"/>
<path d="M20.8632 87.3272V90.8038H26.6599V96.5971H15.0699V72.2573H26.6599V78.0539H20.8632V81.5306H26.6599L20.8632 87.3238V87.3272Z" fill="black"/>
<path d="M32.4531 72.2606H40.5664V78.0573H34.7697C33.9975 78.0573 33.6097 78.445 33.6097 79.2173V80.3772C33.6097 81.1495 33.9975 81.5372 34.7697 81.5372H37.0864C40.1752 81.5372 41.723 83.4694 41.723 87.3305V90.8072C41.723 94.6716 40.1786 96.6005 37.0864 96.6005H28.9731V90.8072H34.7664C35.5386 90.8072 35.9264 90.4194 35.9264 89.6472V88.4872C35.9264 87.715 35.5386 87.3272 34.7664 87.3272H32.4497C29.3575 87.3272 27.8131 85.395 27.8131 81.5339V78.0573C27.8131 74.1928 29.3575 72.2606 32.4497 72.2606H32.4531Z" fill="black"/>
<path d="M50.6586 78.0573V96.6005H44.862V78.0573H41.3854V72.2606H54.1353V78.0573H50.6586Z" fill="black"/>
<path d="M69.954 89.6472L68.2157 96.6005H62.4224L57.7858 72.2606H63.5791L65.8957 87.3272L68.2123 72.2606H71.689L74.0056 87.3272L76.3223 72.2606H82.1189L77.4823 96.6005H71.689L69.9507 89.6472H69.954Z" fill="#3BB44D"/>
<path d="M84.8935 93.7021L84.4522 96.6005H78.6589L83.2956 72.2606H90.2488L94.8855 96.6005H89.0889L88.6476 93.7021H84.8935ZM88.0124 89.5669L86.7722 81.5339L85.0907 92.4853L88.0124 89.5636V89.5669Z" fill="#3BB44D"/>
<path d="M101.872 78.0573V96.6005H96.0756V78.0573H92.599V72.2606H105.349V78.0573H101.872Z" fill="#3BB44D"/>
<path d="M113.927 80.3739V78.0573H111.61V90.8072H113.927V88.4905H119.724V91.9672C119.724 95.0594 118.179 96.6038 115.087 96.6038H110.45C107.358 96.6038 105.814 95.0594 105.814 91.9672V76.9006C105.814 73.8084 107.358 72.264 110.45 72.264H115.087C118.176 72.264 119.724 73.8084 119.724 76.9006V80.3772H113.927V80.3739Z" fill="#3BB44D"/>
<path d="M120.88 72.2606H126.673V81.5339H128.99V72.2606H134.787V96.6005H128.99V87.3272H126.673V96.6005H120.88V72.2606Z" fill="#3BB44D"/>
<path d="M82.8109 38.6676C83.2355 38.9384 83.5664 39.2025 83.9375 39.3796C85.2412 39.9914 86.5583 40.5731 87.8688 41.1714C89.4834 41.9102 89.6806 42.5688 88.7145 44.053C85.8095 48.5125 82.8978 52.9686 79.9895 57.4281C79.2106 58.6215 79.3777 59.1363 80.7082 59.6612C80.969 59.7648 81.2364 59.845 81.5038 59.9319C82.2493 60.1793 82.6739 60.6774 82.4833 61.4663C82.2961 62.2553 81.6676 62.496 80.9121 62.4592C79.3042 62.3856 76.8906 60.5938 76.4961 58.9959C76.3691 58.4778 76.6265 57.7423 76.9374 57.2542C79.702 52.9419 82.4967 48.6462 85.3415 44.3873C85.9366 43.4981 85.7794 43.1237 84.8668 42.6992C82.1624 41.4355 82.1657 41.4054 81.106 44.1868C79.127 49.385 76.553 54.249 72.9125 58.4844C72.0835 59.4472 71.1274 60.3331 70.1145 61.0986C68.2157 62.5361 66.795 62.506 64.8594 61.0953C62.4926 59.3703 60.7744 57.057 59.1765 54.6468C56.706 50.9194 54.707 46.8878 53.3564 42.6256C53.0689 41.7163 52.7179 41.5458 51.8555 41.9437C48.9003 43.3109 48.9037 43.2708 50.7088 46.002C53.1558 49.7093 55.5394 53.46 58.0332 57.1372C58.8087 58.2805 58.6984 59.1731 57.856 60.1459C56.92 61.229 55.9037 62.1617 54.4228 62.399C53.5603 62.5394 52.7447 62.4525 52.514 61.4496C52.2934 60.5002 52.9285 60.0523 53.7776 59.8216C54.1186 59.728 54.4562 59.6077 54.7605 59.4272C55.5026 58.9825 55.7466 58.4878 55.1583 57.6053C52.1597 53.109 49.2212 48.5727 46.2728 44.0464C45.3067 42.5654 45.524 41.8969 47.1252 41.1681C48.7866 40.4126 50.4381 39.6404 52.3301 38.7645M52.5608 25.0519C51.8387 24.7075 49.8731 23.7983 49.1611 23.4339C47.8874 22.7854 47.6768 22.2204 48.3019 20.9267C49.8597 17.6974 51.4309 14.4782 53.0255 11.2656C53.5403 10.2293 53.1659 8.93897 52.1296 8.41748C51.4075 8.0531 50.9495 7.53495 51.2872 6.69587C51.6148 5.8802 52.3067 5.71974 53.0823 5.9504C54.7872 6.45518 55.9204 7.59177 56.4018 9.27995C56.5355 9.7513 56.3717 10.3965 56.1478 10.8712C54.6769 13.9801 53.1826 17.079 51.6315 20.1511C51.1635 21.0738 51.2571 21.5518 52.2499 21.9964C54.6702 23.0762 54.5799 23.0528 56.3417 21.0504C58.2505 18.8775 60.2261 16.7246 62.3288 14.7423C62.8169 14.281 63.2682 13.7093 63.325 13.0374C63.3584 12.6362 63.2481 12.2384 63.1278 11.8507C61.9544 8.08987 59.8083 4.70015 56.3818 2.63756C55.5962 2.16621 55.1516 1.50431 55.6664 0.64518C56.1912 -0.237352 56.9768 -0.0835776 57.7557 0.374403C59.7214 1.5344 61.4396 3.08217 62.7734 4.93749C63.4487 5.8802 64.0237 6.88976 64.5051 7.94613C64.8895 8.78854 64.9764 9.74127 65.3508 10.5937C65.8055 11.6267 66.9889 11.9977 68.0385 11.9242C69.593 11.8139 69.7602 10.8678 70.2248 9.57747C71.6623 5.59939 74.0859 2.42361 77.7932 0.29083C78.5988 -0.170494 79.3008 -0.0768917 79.7588 0.698667C80.2001 1.44414 79.8524 2.07929 79.1738 2.54062C79.1404 2.56402 79.107 2.58408 79.0702 2.60413C77.138 3.74741 75.5233 5.34533 74.3266 7.24411C73.7249 8.20353 73.18 9.24652 72.8022 10.3163C72.4579 11.289 71.7291 12.6429 72.0467 13.6893C72.1871 14.1472 72.5181 14.515 72.839 14.866C75.1623 17.4133 77.4589 19.9873 79.819 22.4979C80.0564 22.7519 80.6715 22.8388 81.0459 22.7386C81.691 22.5681 82.2794 22.177 82.9045 21.9095C83.7035 21.5719 83.8506 21.1139 83.4461 20.3116C81.9718 17.3832 80.6313 14.3813 79.0869 11.4896C78.1208 9.6811 78.4417 8.61471 79.9327 7.13379C80.4976 6.57218 81.3267 6.21449 82.0955 5.93368C82.821 5.66625 83.5798 5.9972 83.6634 6.7761C83.7169 7.27085 83.2689 7.85252 82.958 8.34059C82.831 8.53448 82.4432 8.54117 82.2092 8.68491C81.4871 9.13621 81.1495 9.64767 81.6142 10.567C83.309 13.9233 84.9303 17.3197 86.5851 20.696C87.3372 22.2271 87.1467 22.8221 85.629 23.5475C84.5459 24.0624 83.4661 24.5905 82.3697 25.0786M66.1632 58.6683C66.3704 58.6048 66.2367 58.7318 66.4473 58.6683C66.4975 58.2839 66.8485 58.2103 66.8485 57.8259C66.8585 48.8535 66.8618 39.8777 66.8485 30.9053C66.8485 30.0629 66.7716 29.2071 66.6211 28.3781C66.1398 25.7204 64.1908 23.5576 61.6235 22.7118C59.8751 22.1368 58.909 22.0232 58.1067 23.0595C54.5833 27.6025 53.547 32.6871 54.834 38.2464C56.3015 44.5812 59.1698 50.2742 63.0409 55.4658C64.007 56.7595 65.0867 57.4548 66.1632 58.6683ZM68.7339 58.1502C69.4526 57.5384 69.5128 58.3006 69.9106 57.8526C74.808 52.3903 78.1175 46.0688 79.9661 38.9785C81.3969 33.4861 80.7149 28.3513 77.3386 23.6746C76.2354 22.1469 75.7139 21.953 73.8887 22.528C70.2783 23.6646 68.1422 26.5963 68.1288 30.6045C68.1021 39.6103 68.1221 48.6195 68.1288 57.6253C68.1288 58.0398 68.657 57.3512 68.7339 58.1468V58.1502ZM72.8122 19.0379C71.5085 17.1224 70.1479 15.6883 68.3695 14.7055C67.9917 14.4983 67.3766 14.4147 66.9922 14.5718C64.933 15.4309 63.6025 17.1057 62.0748 19.0379H72.8122ZM63.8766 21.9998C65.1503 23.4539 66.327 24.7945 67.5003 26.1316C68.677 24.7911 69.8537 23.4473 71.1241 21.9998H63.8733H63.8766Z" fill="black"/>
<path d="M66.2902 59.0059C65.7687 58.8455 65.0099 57.7657 64.7826 57.515C64.1741 56.8564 63.5758 56.1845 63.0409 55.4658C59.1698 50.2742 56.3016 44.5812 54.834 38.2464C53.547 32.6871 54.5833 27.6059 58.1067 23.0595C58.6115 22.4076 59.1865 22.2104 59.9788 22.3006C63.1378 22.655 66.1097 25.3861 66.6446 28.5185C66.7783 29.3041 66.8485 30.1097 66.8485 30.9087C66.8585 38.7077 66.6546 46.5335 66.8485 54.3292C66.8786 55.5761 66.9822 56.8029 66.8719 58.0532C66.8451 58.3541 66.7749 59.1564 66.2902 59.0093V59.0059Z" fill="white"/>
<path d="M68.637 59.2098C68.51 59.28 68.3528 59.3068 68.2258 59.2366C68.062 59.1463 68.0085 58.9357 68.0152 58.7485C68.1823 54.8808 68.1222 51.0197 68.1155 47.1486C68.1155 47.0717 68.1155 46.9915 68.1155 46.9146C68.1121 42.99 68.1121 39.0654 68.1155 35.1408C68.1155 33.6298 68.1255 32.1188 68.1255 30.6078C68.1389 26.5996 70.275 23.6679 73.8854 22.5313C75.7106 21.9563 76.2321 22.1502 77.3353 23.6779C80.7116 28.3513 81.3936 33.4861 79.9628 38.9818C79.1237 42.2077 77.957 45.3501 76.446 48.3253C74.9417 51.2905 73.1031 54.1219 70.9436 56.6525C70.5391 57.1239 70.138 57.5986 69.7335 58.0699C69.3992 58.461 69.0983 58.919 68.6537 59.1965C68.647 59.1998 68.6403 59.2065 68.6303 59.2098H68.637Z" fill="#3BB44D"/>
<path d="M72.8123 19.0379H62.0748C63.6059 17.1057 64.933 15.4343 66.9923 14.5718C67.3734 14.4113 67.9918 14.4949 68.3696 14.7055C70.1446 15.6883 71.5086 17.1224 72.8123 19.0379Z" fill="white"/>
<path d="M63.8766 21.9998H71.1274C69.8571 23.4473 68.6804 24.7878 67.5037 26.1316C66.3303 24.7945 65.1536 23.4539 63.8799 21.9998H63.8766Z" fill="#3BB44D"/>
<path d="M67.5371 43.7321C64.7959 43.7221 62.5862 41.499 62.6196 38.7779C62.6497 36.0334 64.8694 33.8538 67.6039 33.8738C70.3518 33.8939 72.5214 36.0902 72.518 38.8448C72.5147 41.5726 70.305 43.7455 67.5404 43.7355L67.5371 43.7321ZM67.5204 41.362C68.9411 41.3787 70.0911 40.2956 70.1278 38.9083C70.1646 37.4274 69.0815 36.2908 67.614 36.2707C66.1899 36.2507 65.0499 37.3171 65.0065 38.7111C64.9597 40.1686 66.0796 41.3419 67.5237 41.362H67.5204Z" fill="white"/>
<path d="M67.5204 41.362C66.0763 41.3453 64.9597 40.1686 65.0032 38.7111C65.0466 37.3171 66.1866 36.2473 67.6107 36.2707C69.0782 36.2908 70.1647 37.4274 70.1245 38.9083C70.0911 40.2923 68.9378 41.3787 67.5171 41.362H67.5204Z" fill="black"/>
<path d="M58.1034 23.0595C58.1034 23.0595 63.1779 16.3937 66.9922 14.5718C66.9922 14.5718 69.1083 12.7466 76.5664 22.7519L77.2283 26.8102L73.17 28.3212L69.1116 32.5701L66.0896 33.1351L66.2267 29.411L58.1034 23.0595Z" fill="#3BB44D"/>
<path d="M68.8609 48.1782V46.4934H66.3337C66.2969 47.0617 66.2668 47.5865 66.2334 48.1113C62.623 48.2517 58.6082 44.3071 58.1903 40.1318C58.7452 40.0917 59.2968 40.0516 59.9219 40.0048V37.6279C59.3403 37.5912 58.782 37.5577 58.2304 37.5243C58.324 33.6799 62.135 29.7988 66.23 29.4144C66.2635 29.9726 66.2936 30.5276 66.3303 31.1694H68.7773C68.8108 30.6078 68.8442 30.0529 68.8776 29.5013C72.8524 29.5381 76.7502 33.6699 76.9575 37.5277H75.1189C75.1189 38.0023 75.1189 38.3801 75.1189 38.7612C75.1189 39.1423 75.1189 39.5434 75.1189 39.9914C75.7674 40.0382 76.329 40.0783 76.8839 40.1184C77.0177 43.7722 72.829 47.9943 68.8609 48.1815V48.1782ZM67.5371 43.7321C70.3017 43.7421 72.5114 41.5692 72.5147 38.8414C72.5181 36.0869 70.3485 33.8939 67.6006 33.8705C64.8628 33.8504 62.6464 36.03 62.6163 38.7746C62.5862 41.499 64.7926 43.7221 67.5338 43.7288L67.5371 43.7321Z" fill="black"/>
</g>
<defs>
<clipPath id="clip0_57_331">
<rect width="134.79" height="96.6005" fill="white"/>
</clipPath>
</defs>
</svg>
