<svg width="135" height="25" viewBox="0 0 135 25" fill="none" xmlns="http://www.w3.org/2000/svg">
<path d="M9.27327 15.0701H5.79663V24.3434H0V0.00354004H9.27327C12.3621 0.00354004 13.9099 1.54797 13.9099 4.64017V10.4335C13.9099 13.5257 12.3655 15.0701 9.27327 15.0701ZM8.11328 9.27681V5.80017H5.79663V9.27681H8.11328Z" fill="#969B9E"/>
<path d="M20.8632 15.0699V18.5465H26.6599V24.3398H15.0699V0H26.6599V5.79663H20.8632V9.27327H26.6599L20.8632 15.0666V15.0699Z" fill="#969B9E"/>
<path d="M32.4531 0.0032959H40.5664V5.79992H34.7697C33.9975 5.79992 33.6097 6.1877 33.6097 6.95992V8.11991C33.6097 8.89213 33.9975 9.27991 34.7697 9.27991H37.0864C40.1752 9.27991 41.723 11.2121 41.723 15.0732V18.5498C41.723 22.4143 40.1786 24.3431 37.0864 24.3431H28.9731V18.5498H34.7664C35.5386 18.5498 35.9264 18.1621 35.9264 17.3898V16.2298C35.9264 15.4576 35.5386 15.0699 34.7664 15.0699H32.4497C29.3575 15.0699 27.8131 13.1376 27.8131 9.27656V5.79992C27.8131 1.9355 29.3575 0.0032959 32.4497 0.0032959H32.4531Z" fill="#969B9E"/>
<path d="M50.6586 5.79992V24.3431H44.862V5.79992H41.3854V0.0032959H54.1353V5.79992H50.6586Z" fill="#969B9E"/>
<path d="M69.954 17.3898L68.2157 24.3431H62.4224L57.7858 0.0032959H63.5791L65.8957 15.0699L68.2123 0.0032959H71.689L74.0056 15.0699L76.3223 0.0032959H82.1189L77.4823 24.3431H71.689L69.9507 17.3898H69.954Z" fill="#969B9E"/>
<path d="M84.8935 21.4448L84.4522 24.3431H78.6589L83.2956 0.0032959H90.2488L94.8855 24.3431H89.0889L88.6476 21.4448H84.8935ZM88.0124 17.3096L86.7722 9.27656L85.0907 20.228L88.0124 17.3063V17.3096Z" fill="#969B9E"/>
<path d="M101.872 5.79992V24.3431H96.0756V5.79992H92.599V0.0032959H105.349V5.79992H101.872Z" fill="#969B9E"/>
<path d="M113.927 8.11652V5.79988H111.61V18.5498H113.927V16.2331H119.724V19.7098C119.724 22.802 118.179 24.3464 115.087 24.3464H110.45C107.358 24.3464 105.814 22.802 105.814 19.7098V4.64322C105.814 1.55102 107.358 0.0065918 110.45 0.0065918H115.087C118.176 0.0065918 119.724 1.55102 119.724 4.64322V8.11987H113.927V8.11652Z" fill="#969B9E"/>
<path d="M120.88 0.0032959H126.673V9.27656H128.99V0.0032959H134.787V24.3431H128.99V15.0699H126.673V24.3431H120.88V0.0032959Z" fill="#969B9E"/>
</svg>
